# xmcd
#
# Track frame offsets:
#	150
#	4237
#	26116
#	64812
#	84049
#	120415
#	150675
#	167653
#	202433
#	247783
#
# Disc length: 4467 seconds
#
# Revision: 0
# Processed by: cddbd v1.4PL0 Copyright (c) Steve Scherf et al.
# Submitted via: dBpowerAMP V4.0
#
DISCID=7811710a
DTITLE=Albert King - Thursday Night In San Francisco
DYEAR=1990
DGENRE=Blues
TTITLE0=San-Ho-Zay
TTITLE1=You Upset Me, Baby
TTITLE2=Call It Stormy Monday
TTITLE3=Everyday I Have The Blues
TTITLE4=Drifting Blues
TTITLE5=I´ve Made Nights By Myseft
TTITLE6=Crosscut Saw
TTITLE7=I´m Gonna Move To The Outskirts Of Town
TTITLE8=Ooh-ee Baby
TTITLE9=DATA
EXTD=
EXTT0=
EXTT1=
EXTT2=
EXTT3=
EXTT4=
EXTT5=
EXTT6=
EXTT7=
EXTT8=
EXTT9=
PLAYORDER=
